<?xml version="1.0" encoding="UTF-8" standalone="no"?>
<svg
   version="1.1"
   viewBox="0 0 421.43887 427.88699"
   fill="none"
   stroke="none"
   stroke-linecap="square"
   stroke-miterlimit="10"
   id="svg214"
   sodipodi:docname="sanqi-blocked.svg"
   width="421.43887"
   height="427.88699"
   inkscape:version="1.4 (e7c3feb100, 2024-10-09)"
   xmlns:inkscape="http://www.inkscape.org/namespaces/inkscape"
   xmlns:sodipodi="http://sodipodi.sourceforge.net/DTD/sodipodi-0.dtd"
   xmlns="http://www.w3.org/2000/svg"
   xmlns:svg="http://www.w3.org/2000/svg">
  <defs
     id="defs214" />
  <sodipodi:namedview
     id="namedview214"
     pagecolor="#ffffff"
     bordercolor="#000000"
     borderopacity="0.25"
     inkscape:showpageshadow="2"
     inkscape:pageopacity="0.0"
     inkscape:pagecheckerboard="0"
     inkscape:deskcolor="#d1d1d1"
     inkscape:zoom="0.99479167"
     inkscape:cx="282.4712"
     inkscape:cy="320.67016"
     inkscape:window-width="1920"
     inkscape:window-height="975"
     inkscape:window-x="0"
     inkscape:window-y="0"
     inkscape:window-maximized="1"
     inkscape:current-layer="svg214" />
  <path
     fill="#ff0000"
     d="m 27.6458,220.38902 h 45.16534 v 46.23621 H 27.6458 Z"
     fill-rule="evenodd"
     id="path3" />
  <path
     stroke="#000000"
     stroke-width="2"
     stroke-linejoin="round"
     stroke-linecap="butt"
     d="m 27.6458,220.38902 h 45.16534 v 46.23621 H 27.6458 Z"
     fill-rule="evenodd"
     id="path4" />
  <path
     fill="#000000"
     fill-opacity="0"
     d="m 0.80984,219.81941 h 30.45671 v 30.4567 H 0.80984 Z"
     fill-rule="evenodd"
     id="path5" />
  <path
     fill="#000000"
     d="m 15.62234,246.73939 v -2.6875 h -5.46875 v -2.23437 l 5.79687,-8.48438 h 2.15625 v 8.46875 h 1.65625 v 2.25 h -1.65625 v 2.6875 z m 0,-4.9375 v -4.5625 l -3.07813,4.5625 z"
     fill-rule="nonzero"
     id="path6" />
  <path
     fill="#ff0000"
     d="m 73.06303,220.62979 h 45.16534 v 46.23624 H 73.06303 Z"
     fill-rule="evenodd"
     id="path7" />
  <path
     stroke="#000000"
     stroke-width="2"
     stroke-linejoin="round"
     stroke-linecap="butt"
     d="m 73.06303,220.62979 h 45.16534 v 46.23624 H 73.06303 Z"
     fill-rule="evenodd"
     id="path8" />
  <path
     fill="#ffffff"
     d="m 80.65357,243.45919 c 0,-8.41037 6.81796,-15.22833 15.22833,-15.22833 4.03882,0 7.9122,1.6044 10.76807,4.46026 2.85586,2.85587 4.4603,6.72925 4.4603,10.76807 0,8.4104 -6.81797,15.22836 -15.22837,15.22836 -8.41037,0 -15.22833,-6.81796 -15.22833,-15.22836 z"
     fill-rule="evenodd"
     id="path9" />
  <path
     stroke="#000000"
     stroke-width="2"
     stroke-linejoin="round"
     stroke-linecap="butt"
     d="m 80.65357,243.45919 c 0,-8.41037 6.81796,-15.22833 15.22833,-15.22833 4.03882,0 7.9122,1.6044 10.76807,4.46026 2.85586,2.85587 4.4603,6.72925 4.4603,10.76807 0,8.4104 -6.81797,15.22836 -15.22837,15.22836 -8.41037,0 -15.22833,-6.81796 -15.22833,-15.22836 z"
     fill-rule="evenodd"
     id="path10" />
  <path
     fill="#ff0000"
     d="M 27.88654,266.85686 H 73.05191 V 313.0931 H 27.88654 Z"
     fill-rule="evenodd"
     id="path11" />
  <path
     stroke="#000000"
     stroke-width="2"
     stroke-linejoin="round"
     stroke-linecap="butt"
     d="M 27.88654,266.85686 H 73.05191 V 313.0931 H 27.88654 Z"
     fill-rule="evenodd"
     id="path12" />
  <path
     fill="#000000"
     fill-opacity="0"
     d="m 1.0506,266.28725 h 30.4567 v 30.4567 H 1.0506 Z"
     fill-rule="evenodd"
     id="path13" />
  <path
     fill="#000000"
     d="m 10.75373,289.66039 2.46875,-0.29687 q 0.125,0.95312 0.64062,1.45312 0.53125,0.5 1.26563,0.5 0.78125,0 1.32812,-0.59375 0.54688,-0.60937 0.54688,-1.64062 0,-0.95313 -0.53125,-1.51563 -0.51563,-0.57812 -1.25,-0.57812 -0.5,0 -1.1875,0.20312 l 0.28125,-2.09375 q 1.04687,0.0312 1.59375,-0.4375 0.54687,-0.48437 0.54687,-1.28125 0,-0.67187 -0.40625,-1.07812 -0.39062,-0.40625 -1.0625,-0.40625 -0.65625,0 -1.125,0.46875 -0.45312,0.45312 -0.5625,1.32812 l -2.35937,-0.40625 q 0.25,-1.20312 0.73437,-1.92187 0.5,-0.73438 1.39063,-1.14063 0.89062,-0.42187 2,-0.42187 1.875,0 3.01562,1.20312 0.9375,0.98438 0.9375,2.21875 0,1.76563 -1.92187,2.8125 1.15625,0.23438 1.84375,1.09375 0.6875,0.85938 0.6875,2.0625 0,1.76563 -1.29688,3.01563 -1.28125,1.23437 -3.1875,1.23437 -1.8125,0 -3.01562,-1.04687 -1.1875,-1.04688 -1.375,-2.73438 z"
     fill-rule="nonzero"
     id="path14" />
  <path
     fill="#ff0000"
     d="m 73.30378,267.09764 h 45.16534 v 46.23621 H 73.30378 Z"
     fill-rule="evenodd"
     id="path15" />
  <path
     stroke="#000000"
     stroke-width="2"
     stroke-linejoin="round"
     stroke-linecap="butt"
     d="m 73.30378,267.09764 h 45.16534 v 46.23621 H 73.30378 Z"
     fill-rule="evenodd"
     id="path16" />
  <path
     fill="#ff0000"
     d="m 119.2901,220.62979 h 45.16534 v 46.23624 H 119.2901 Z"
     fill-rule="evenodd"
     id="path17" />
  <path
     stroke="#000000"
     stroke-width="2"
     stroke-linejoin="round"
     stroke-linecap="butt"
     d="m 119.2901,220.62979 h 45.16534 v 46.23624 H 119.2901 Z"
     fill-rule="evenodd"
     id="path18" />
  <path
     fill="#ff0000"
     d="m 164.70734,220.87056 h 45.16534 v 46.23621 h -45.16534 z"
     fill-rule="evenodd"
     id="path19" />
  <path
     stroke="#000000"
     stroke-width="2"
     stroke-linejoin="round"
     stroke-linecap="butt"
     d="m 164.70734,220.87056 h 45.16534 v 46.23621 h -45.16534 z"
     fill-rule="evenodd"
     id="path20" />
  <path
     fill="#ff0000"
     d="m 119.53086,267.09764 h 45.16534 v 46.23621 h -45.16534 z"
     fill-rule="evenodd"
     id="path21" />
  <path
     stroke="#000000"
     stroke-width="2"
     stroke-linejoin="round"
     stroke-linecap="butt"
     d="m 119.53086,267.09764 h 45.16534 v 46.23621 h -45.16534 z"
     fill-rule="evenodd"
     id="path22" />
  <path
     fill="#ffffff"
     d="m 127.1214,289.92705 c 0,-8.4104 6.81796,-15.22836 15.22836,-15.22836 4.03879,0 7.9122,1.6044 10.76807,4.46029 2.85586,2.85587 4.46026,6.72925 4.46026,10.76807 0,8.41037 -6.81796,15.22833 -15.22833,15.22833 -8.4104,0 -15.22836,-6.81796 -15.22836,-15.22833 z"
     fill-rule="evenodd"
     id="path23" />
  <path
     stroke="#000000"
     stroke-width="2"
     stroke-linejoin="round"
     stroke-linecap="butt"
     d="m 127.1214,289.92705 c 0,-8.4104 6.81796,-15.22836 15.22836,-15.22836 4.03879,0 7.9122,1.6044 10.76807,4.46029 2.85586,2.85587 4.46026,6.72925 4.46026,10.76807 0,8.41037 -6.81796,15.22833 -15.22833,15.22833 -8.4104,0 -15.22836,-6.81796 -15.22836,-15.22833 z"
     fill-rule="evenodd"
     id="path24" />
  <path
     fill="#ff0000"
     d="m 164.9481,267.33839 h 45.16534 v 46.23624 H 164.9481 Z"
     fill-rule="evenodd"
     id="path25" />
  <path
     stroke="#000000"
     stroke-width="2"
     stroke-linejoin="round"
     stroke-linecap="butt"
     d="m 164.9481,267.33839 h 45.16534 v 46.23624 H 164.9481 Z"
     fill-rule="evenodd"
     id="path26" />
  <path
     fill="#ff0000"
     d="m 27.88654,313.08394 h 45.16537 v 46.23624 H 27.88654 Z"
     fill-rule="evenodd"
     id="path27" />
  <path
     stroke="#000000"
     stroke-width="2"
     stroke-linejoin="round"
     stroke-linecap="butt"
     d="m 27.88654,313.08394 h 45.16537 v 46.23624 H 27.88654 Z"
     fill-rule="evenodd"
     id="path28" />
  <path
     fill="#000000"
     fill-opacity="0"
     d="m 1.0506,312.51433 h 30.4567 v 30.4567 H 1.0506 Z"
     fill-rule="evenodd"
     id="path29" />
  <path
     fill="#000000"
     d="m 19.4881,337.05934 v 2.375 h -8.96875 q 0.14062,-1.34375 0.85937,-2.54687 0.73438,-1.21875 2.89063,-3.20313 1.73437,-1.625 2.125,-2.1875 0.53125,-0.79687 0.53125,-1.57812 0,-0.84375 -0.46875,-1.29688 -0.45313,-0.46875 -1.26563,-0.46875 -0.79687,0 -1.28125,0.48438 -0.46875,0.46875 -0.54687,1.59375 l -2.54688,-0.25 q 0.23438,-2.10938 1.42188,-3.03125 1.20312,-0.92188 3.01562,-0.92188 1.96875,0 3.09375,1.0625 1.14063,1.0625 1.14063,2.65625 0,0.89063 -0.32813,1.71875 -0.3125,0.8125 -1.01562,1.70313 -0.46875,0.59375 -1.6875,1.70312 -1.20313,1.10938 -1.53125,1.48438 -0.3125,0.35937 -0.51563,0.70312 z"
     fill-rule="nonzero"
     id="path30" />
  <path
     fill="#ff0000"
     d="m 73.30378,313.32472 h 45.16534 v 46.23621 H 73.30378 Z"
     fill-rule="evenodd"
     id="path31" />
  <path
     stroke="#000000"
     stroke-width="2"
     stroke-linejoin="round"
     stroke-linecap="butt"
     d="m 73.30378,313.32472 h 45.16534 v 46.23621 H 73.30378 Z"
     fill-rule="evenodd"
     id="path32" />
  <path
     fill="#ff0000"
     d="M 28.12733,359.55179 H 73.29267 V 405.788 H 28.12733 Z"
     fill-rule="evenodd"
     id="path33" />
  <path
     stroke="#000000"
     stroke-width="2"
     stroke-linejoin="round"
     stroke-linecap="butt"
     d="M 28.12733,359.55179 H 73.29267 V 405.788 H 28.12733 Z"
     fill-rule="evenodd"
     id="path34" />
  <path
     fill="#000000"
     fill-opacity="0"
     d="m 35.72092,396.56359 h 30.4567 v 30.45666 h -30.4567 z"
     fill-rule="evenodd"
     id="path35" />
  <path
     fill="#000000"
     d="m 47.97092,416.76482 -2.32813,-0.42188 q 0.40625,-1.40625 1.35938,-2.07812 0.95312,-0.67188 2.84375,-0.67188 1.70312,0 2.54687,0.40625 0.84375,0.40625 1.17188,1.03125 0.34375,0.625 0.34375,2.28125 l -0.0156,3 q 0,1.26563 0.10938,1.875 0.125,0.60938 0.46875,1.29688 H 51.9397 q -0.10938,-0.25 -0.25,-0.75 -0.0625,-0.23438 -0.0937,-0.3125 -0.65625,0.64062 -1.40625,0.96875 -0.73438,0.3125 -1.59375,0.3125 -1.48438,0 -2.34375,-0.8125 -0.85938,-0.8125 -0.85938,-2.04688 0,-0.82812 0.39063,-1.46875 0.39062,-0.64062 1.09375,-0.96875 0.70312,-0.34375 2.03125,-0.60937 1.79687,-0.32813 2.48437,-0.625 v -0.25 q 0,-0.75 -0.35937,-1.0625 -0.35938,-0.3125 -1.375,-0.3125 -0.6875,0 -1.07813,0.28125 -0.375,0.26562 -0.60937,0.9375 z m 3.42187,2.07812 q -0.48437,0.15625 -1.5625,0.39063 -1.0625,0.21875 -1.39062,0.4375 -0.5,0.35937 -0.5,0.90625 0,0.53125 0.40625,0.9375 0.40625,0.39062 1.01562,0.39062 0.70313,0 1.32813,-0.46875 0.46875,-0.34375 0.60937,-0.84375 0.0937,-0.32812 0.0937,-1.25 z"
     fill-rule="nonzero"
     id="path36" />
  <path
     fill="#000000"
     fill-opacity="0"
     d="m 1.29137,358.98219 h 30.45671 v 30.45666 H 1.29137 Z"
     fill-rule="evenodd"
     id="path37" />
  <path
     fill="#000000"
     d="m 17.63512,385.90219 h -2.5625 v -9.64062 q -1.40625,1.3125 -3.3125,1.9375 v -2.32813 q 1.01563,-0.32812 2.1875,-1.23437 1.17188,-0.92188 1.60938,-2.14063 h 2.07812 z"
     fill-rule="nonzero"
     id="path38" />
  <path
     fill="#ff0000"
     d="M 73.54456,359.79256 H 118.7099 V 406.0288 H 73.54456 Z"
     fill-rule="evenodd"
     id="path39" />
  <path
     stroke="#000000"
     stroke-width="2"
     stroke-linejoin="round"
     stroke-linecap="butt"
     d="M 73.54456,359.79256 H 118.7099 V 406.0288 H 73.54456 Z"
     fill-rule="evenodd"
     id="path40" />
  <path
     fill="#000000"
     fill-opacity="0"
     d="m 81.13816,396.80434 h 30.4567 v 30.4567 h -30.4567 z"
     fill-rule="evenodd"
     id="path41" />
  <path
     fill="#000000"
     d="m 91.37254,423.72435 v -13.35937 h 2.5625 v 4.8125 q 1.17188,-1.34375 2.79688,-1.34375 1.76562,0 2.92187,1.28125 1.15625,1.28125 1.15625,3.67187 0,2.48438 -1.1875,3.82813 -1.17187,1.32812 -2.85937,1.32812 -0.82813,0 -1.64063,-0.40625 -0.79687,-0.42187 -1.375,-1.23437 v 1.42187 z m 2.53125,-5.04687 q 0,1.5 0.48438,2.21875 0.65625,1.03125 1.76562,1.03125 0.84375,0 1.4375,-0.71875 0.59375,-0.73438 0.59375,-2.29688 0,-1.65625 -0.60937,-2.39062 -0.59375,-0.73438 -1.53125,-0.73438 -0.92188,0 -1.53125,0.71875 -0.60938,0.71875 -0.60938,2.17188 z"
     fill-rule="nonzero"
     id="path42" />
  <path
     fill="#ff0000"
     d="m 119.53086,313.32472 h 45.16534 v 46.23621 h -45.16534 z"
     fill-rule="evenodd"
     id="path43" />
  <path
     stroke="#000000"
     stroke-width="2"
     stroke-linejoin="round"
     stroke-linecap="butt"
     d="m 119.53086,313.32472 h 45.16534 v 46.23621 h -45.16534 z"
     fill-rule="evenodd"
     id="path44" />
  <path
     fill="#ff0000"
     d="m 164.9481,313.56549 h 45.16534 v 46.23624 H 164.9481 Z"
     fill-rule="evenodd"
     id="path45" />
  <path
     stroke="#000000"
     stroke-width="2"
     stroke-linejoin="round"
     stroke-linecap="butt"
     d="m 164.9481,313.56549 h 45.16534 v 46.23624 H 164.9481 Z"
     fill-rule="evenodd"
     id="path46" />
  <path
     fill="#ffffff"
     d="m 172.53864,336.39489 c 0,-8.41037 6.81796,-15.22833 15.22836,-15.22833 4.03879,0 7.9122,1.6044 10.76807,4.46026 2.85586,2.85587 4.46026,6.72925 4.46026,10.76807 0,8.41037 -6.81796,15.22836 -15.22833,15.22836 -8.4104,0 -15.22836,-6.81799 -15.22836,-15.22836 z"
     fill-rule="evenodd"
     id="path47" />
  <path
     stroke="#000000"
     stroke-width="2"
     stroke-linejoin="round"
     stroke-linecap="butt"
     d="m 172.53864,336.39489 c 0,-8.41037 6.81796,-15.22833 15.22836,-15.22833 4.03879,0 7.9122,1.6044 10.76807,4.46026 2.85586,2.85587 4.46026,6.72925 4.46026,10.76807 0,8.41037 -6.81796,15.22836 -15.22833,15.22836 -8.4104,0 -15.22836,-6.81799 -15.22836,-15.22836 z"
     fill-rule="evenodd"
     id="path48" />
  <path
     fill="#ff0000"
     d="m 119.77165,359.79256 h 45.16534 v 46.23624 h -45.16534 z"
     fill-rule="evenodd"
     id="path49" />
  <path
     stroke="#000000"
     stroke-width="2"
     stroke-linejoin="round"
     stroke-linecap="butt"
     d="m 119.77165,359.79256 h 45.16534 v 46.23624 h -45.16534 z"
     fill-rule="evenodd"
     id="path50" />
  <path
     fill="#000000"
     fill-opacity="0"
     d="m 127.36524,396.80434 h 30.4567 v 30.4567 h -30.4567 z"
     fill-rule="evenodd"
     id="path51" />
  <path
     fill="#000000"
     d="m 146.1465,416.91185 -2.53125,0.45313 q -0.125,-0.75 -0.57812,-1.125 -0.45313,-0.39063 -1.17188,-0.39063 -0.95312,0 -1.53125,0.65625 -0.5625,0.65625 -0.5625,2.20313 0,1.73437 0.57813,2.4375 0.57812,0.70312 1.54687,0.70312 0.73438,0 1.20313,-0.40625 0.46875,-0.42187 0.65625,-1.42187 l 2.51562,0.42187 q -0.39062,1.73438 -1.51562,2.625 -1.10938,0.875 -2.96875,0.875 -2.125,0 -3.39063,-1.32812 -1.25,-1.34375 -1.25,-3.71875 0,-2.39063 1.26563,-3.71875 1.26562,-1.34375 3.42187,-1.34375 1.76563,0 2.79688,0.76562 1.04687,0.75 1.51562,2.3125 z"
     fill-rule="nonzero"
     id="path52" />
  <path
     fill="#ff0000"
     d="m 165.18885,360.03334 h 45.16537 v 46.23621 h -45.16537 z"
     fill-rule="evenodd"
     id="path53" />
  <path
     stroke="#000000"
     stroke-width="2"
     stroke-linejoin="round"
     stroke-linecap="butt"
     d="m 165.18885,360.03334 h 45.16537 v 46.23621 h -45.16537 z"
     fill-rule="evenodd"
     id="path54" />
  <path
     fill="#000000"
     fill-opacity="0"
     d="m 172.78248,397.04512 h 30.4567 v 30.45666 h -30.4567 z"
     fill-rule="evenodd"
     id="path55" />
  <path
     fill="#000000"
     d="m 192.00123,423.96509 h -2.39063 v -1.42188 q -0.59375,0.82813 -1.40625,1.23438 -0.79687,0.40625 -1.60937,0.40625 -1.67188,0 -2.85938,-1.34375 -1.1875,-1.34375 -1.1875,-3.75 0,-2.45313 1.15625,-3.73438 1.15625,-1.28125 2.92188,-1.28125 1.625,0 2.8125,1.34375 v -4.8125 h 2.5625 z m -6.84375,-5.04688 q 0,1.54688 0.4375,2.23438 0.60937,1.01562 1.71875,1.01562 0.89062,0 1.5,-0.75 0.625,-0.76562 0.625,-2.25 0,-1.67187 -0.60938,-2.40625 -0.59375,-0.73437 -1.53125,-0.73437 -0.90625,0 -1.53125,0.73437 -0.60937,0.71875 -0.60937,2.15625 z"
     fill-rule="nonzero"
     id="path56" />
  <path
     fill="#ff0000"
     d="m 26.83593,34.670852 h 45.16536 v 46.23623 H 26.83593 Z"
     fill-rule="evenodd"
     id="path57" />
  <path
     stroke="#000000"
     stroke-width="2"
     stroke-linejoin="round"
     stroke-linecap="butt"
     d="m 26.83593,34.670852 h 45.16536 v 46.23623 H 26.83593 Z"
     fill-rule="evenodd"
     id="path58" />
  <path
     fill="#000000"
     fill-opacity="0"
     d="M 35.2394,0 H 65.6961 V 30.456692 H 35.2394 Z"
     fill-rule="evenodd"
     id="path59" />
  <path
     fill="#000000"
     d="m 47.4894,20.201252 -2.32813,-0.421875 q 0.40625,-1.40625 1.35938,-2.078125 0.95312,-0.671875 2.84375,-0.671875 1.70312,0 2.54687,0.40625 0.84375,0.40625 1.17188,1.03125 0.34375,0.625 0.34375,2.28125 l -0.0156,3 q 0,1.265625 0.10938,1.875 0.125,0.609375 0.46875,1.296875 h -2.53125 q -0.10938,-0.25 -0.25,-0.75 -0.0625,-0.234375 -0.0937,-0.3125 -0.65625,0.640625 -1.40625,0.96875 -0.73438,0.3125 -1.59375,0.3125 -1.48438,0 -2.34375,-0.8125 -0.85938,-0.8125 -0.85938,-2.046875 0,-0.828125 0.39063,-1.46875 0.39062,-0.640625 1.09375,-0.96875 0.70312,-0.34375 2.03125,-0.609375 1.79687,-0.328125 2.48437,-0.625 v -0.25 q 0,-0.75 -0.35937,-1.0625 -0.35938,-0.3125 -1.375,-0.3125 -0.6875,0 -1.07813,0.28125 -0.375,0.265625 -0.60937,0.9375 z m 3.42187,2.078125 q -0.48437,0.15625 -1.5625,0.390625 -1.0625,0.21875 -1.39062,0.4375 -0.5,0.359375 -0.5,0.90625 0,0.53125 0.40625,0.9375 0.40625,0.390625 1.01562,0.390625 0.70313,0 1.32813,-0.46875 0.46875,-0.34375 0.60937,-0.84375 0.0937,-0.328125 0.0937,-1.25 z"
     fill-rule="nonzero"
     id="path60" />
  <path
     fill="#000000"
     fill-opacity="0"
     d="m 0,34.101232 h 30.45668 v 30.4567 H 0 Z"
     fill-rule="evenodd"
     id="path61" />
  <path
     fill="#000000"
     d="m 11.98437,53.818102 q -0.98438,-0.42188 -1.4375,-1.15625 -0.45313,-0.73438 -0.45313,-1.60938 0,-1.48437 1.03125,-2.45312 1.04688,-0.98438 2.96875,-0.98438 1.90625,0 2.95313,0.98438 1.0625,0.96875 1.0625,2.45312 0,0.9375 -0.48438,1.65625 -0.48437,0.71875 -1.35937,1.10938 1.10937,0.4375 1.6875,1.29687 0.57812,0.85938 0.57812,1.98438 0,1.84375 -1.1875,3 -1.17187,1.15625 -3.125,1.15625 -1.82812,0 -3.03125,-0.95313 -1.4375,-1.125 -1.4375,-3.09375 0,-1.09375 0.53125,-2 0.54688,-0.90625 1.70313,-1.39062 z m 0.53125,-2.57813 q 0,0.76563 0.42187,1.20313 0.4375,0.42187 1.15625,0.42187 0.73438,0 1.17188,-0.4375 0.4375,-0.4375 0.4375,-1.20312 0,-0.71875 -0.4375,-1.14063 -0.42188,-0.4375 -1.14063,-0.4375 -0.73437,0 -1.17187,0.4375 -0.4375,0.4375 -0.4375,1.15625 z m -0.23438,5.71875 q 0,1.0625 0.53125,1.65625 0.54688,0.57813 1.35938,0.57813 0.79687,0 1.3125,-0.5625 0.51562,-0.5625 0.51562,-1.64063 0,-0.9375 -0.53125,-1.5 -0.51562,-0.57812 -1.32812,-0.57812 -0.9375,0 -1.40625,0.65625 -0.45313,0.64062 -0.45313,1.39062 z"
     fill-rule="nonzero"
     id="path62" />
  <path
     fill="#ff0000"
     d="m 72.25318,34.911617 h 45.16534 V 81.147842 H 72.25318 Z"
     fill-rule="evenodd"
     id="path63" />
  <path
     stroke="#000000"
     stroke-width="2"
     stroke-linejoin="round"
     stroke-linecap="butt"
     d="m 72.25318,34.911617 h 45.16534 V 81.147842 H 72.25318 Z"
     fill-rule="evenodd"
     id="path64" />
  <path
     fill="#000000"
     fill-opacity="0"
     d="m 80.65662,0.240768 h 30.4567 V 30.69746 h -30.4567 z"
     fill-rule="evenodd"
     id="path65" />
  <path
     fill="#000000"
     d="M 90.891,27.160762 V 13.801387 h 2.5625 v 4.8125 q 1.17187,-1.34375 2.79687,-1.34375 1.76563,0 2.92188,1.28125 1.15625,1.28125 1.15625,3.671875 0,2.484375 -1.1875,3.828125 -1.17188,1.328125 -2.85938,1.328125 -0.82812,0 -1.64062,-0.40625 -0.79688,-0.421875 -1.375,-1.234375 v 1.421875 z m 2.53125,-5.046875 q 0,1.5 0.48437,2.21875 0.65625,1.03125 1.76563,1.03125 0.84375,0 1.4375,-0.71875 0.59375,-0.734375 0.59375,-2.296875 0,-1.65625 -0.60938,-2.390625 -0.59375,-0.734375 -1.53125,-0.734375 -0.92187,0 -1.53125,0.71875 -0.60937,0.71875 -0.60937,2.171875 z"
     fill-rule="nonzero"
     id="path66" />
  <path
     fill="#ff0000"
     d="M 27.0767,81.138702 H 72.24204 V 127.37492 H 27.0767 Z"
     fill-rule="evenodd"
     id="path67" />
  <path
     stroke="#000000"
     stroke-width="2"
     stroke-linejoin="round"
     stroke-linecap="butt"
     d="M 27.0767,81.138702 H 72.24204 V 127.37492 H 27.0767 Z"
     fill-rule="evenodd"
     id="path68" />
  <path
     fill="#000000"
     fill-opacity="0"
     d="m 0.24076,80.569082 h 30.4567 V 111.02578 H 0.24076 Z"
     fill-rule="evenodd"
     id="path69" />
  <path
     fill="#000000"
     d="m 10.03764,96.692202 v -2.375 h 8.75 v 1.85937 q -1.07813,1.0625 -2.20313,3.0625 -1.125,1.984378 -1.71875,4.234378 -0.57812,2.25 -0.5625,4.01562 h -2.46875 q 0.0625,-2.76562 1.14063,-5.64062 1.07812,-2.890628 2.875,-5.156248 z"
     fill-rule="nonzero"
     id="path70" />
  <path
     fill="#ff0000"
     d="m 72.49394,81.379472 h 45.16534 V 127.61569 H 72.49394 Z"
     fill-rule="evenodd"
     id="path71" />
  <path
     stroke="#000000"
     stroke-width="2"
     stroke-linejoin="round"
     stroke-linecap="butt"
     d="m 72.49394,81.379472 h 45.16534 V 127.61569 H 72.49394 Z"
     fill-rule="evenodd"
     id="path72" />
  <path
     fill="#ff0000"
     d="M 118.48026,34.911617 H 163.6456 V 81.147842 H 118.48026 Z"
     fill-rule="evenodd"
     id="path73" />
  <path
     stroke="#000000"
     stroke-width="2"
     stroke-linejoin="round"
     stroke-linecap="butt"
     d="M 118.48026,34.911617 H 163.6456 V 81.147842 H 118.48026 Z"
     fill-rule="evenodd"
     id="path74" />
  <path
     fill="#000000"
     fill-opacity="0"
     d="m 126.8837,0.240768 h 30.4567 V 30.69746 h -30.4567 z"
     fill-rule="evenodd"
     id="path75" />
  <path
     fill="#000000"
     d="m 145.66496,20.348262 -2.53125,0.453125 q -0.125,-0.75 -0.57812,-1.125 -0.45313,-0.390625 -1.17188,-0.390625 -0.95312,0 -1.53125,0.65625 -0.5625,0.65625 -0.5625,2.203125 0,1.734375 0.57813,2.4375 0.57812,0.703125 1.54687,0.703125 0.73438,0 1.20313,-0.40625 0.46875,-0.421875 0.65625,-1.421875 l 2.51562,0.421875 q -0.39062,1.734375 -1.51562,2.625 -1.10938,0.875 -2.96875,0.875 -2.125,0 -3.39063,-1.328125 -1.25,-1.34375 -1.25,-3.71875 0,-2.390625 1.26563,-3.71875 1.26562,-1.34375 3.42187,-1.34375 1.76563,0 2.79688,0.765625 1.04687,0.75 1.51562,2.3125 z"
     fill-rule="nonzero"
     id="path76" />
  <path
     fill="#ff0000"
     d="m 163.89747,35.152382 h 45.16537 v 46.23623 h -45.16537 z"
     fill-rule="evenodd"
     id="path77" />
  <path
     stroke="#000000"
     stroke-width="2"
     stroke-linejoin="round"
     stroke-linecap="butt"
     d="m 163.89747,35.152382 h 45.16537 v 46.23623 h -45.16537 z"
     fill-rule="evenodd"
     id="path78" />
  <path
     fill="#000000"
     fill-opacity="0"
     d="m 172.30094,0.481537 h 30.4567 v 30.456692 h -30.4567 z"
     fill-rule="evenodd"
     id="path79" />
  <path
     fill="#000000"
     d="m 191.5197,27.401532 h -2.39062 v -1.421875 q -0.59375,0.828125 -1.40625,1.234375 -0.79688,0.40625 -1.60938,0.40625 -1.67187,0 -2.85937,-1.34375 -1.1875,-1.34375 -1.1875,-3.75 0,-2.453125 1.15625,-3.734375 1.15625,-1.28125 2.92187,-1.28125 1.625,0 2.8125,1.34375 v -4.8125 h 2.5625 z m -6.84375,-5.046875 q 0,1.546875 0.4375,2.234375 0.60938,1.015625 1.71875,1.015625 0.89063,0 1.5,-0.75 0.625,-0.765625 0.625,-2.25 0,-1.671875 -0.60937,-2.40625 -0.59375,-0.734375 -1.53125,-0.734375 -0.90625,0 -1.53125,0.734375 -0.60938,0.71875 -0.60938,2.15625 z"
     fill-rule="nonzero"
     id="path80" />
  <path
     fill="#ffffff"
     d="m 171.48805,57.981782 c 0,-8.41039 6.81796,-15.22835 15.22833,-15.22835 4.03882,0 7.9122,1.60441 10.76807,4.46028 2.85586,2.85587 4.4603,6.72926 4.4603,10.76807 0,8.41038 -6.81797,15.22835 -15.22837,15.22835 -8.41037,0 -15.22833,-6.81797 -15.22833,-15.22835 z"
     fill-rule="evenodd"
     id="path81" />
  <path
     stroke="#000000"
     stroke-width="2"
     stroke-linejoin="round"
     stroke-linecap="butt"
     d="m 171.48805,57.981782 c 0,-8.41039 6.81796,-15.22835 15.22833,-15.22835 4.03882,0 7.9122,1.60441 10.76807,4.46028 2.85586,2.85587 4.4603,6.72926 4.4603,10.76807 0,8.41038 -6.81797,15.22835 -15.22837,15.22835 -8.41037,0 -15.22833,-6.81797 -15.22833,-15.22835 z"
     fill-rule="evenodd"
     id="path82" />
  <path
     fill="#ff0000"
     d="m 118.72102,81.379472 h 45.16534 v 46.236218 h -45.16534 z"
     fill-rule="evenodd"
     id="path83" />
  <path
     stroke="#000000"
     stroke-width="2"
     stroke-linejoin="round"
     stroke-linecap="butt"
     d="m 118.72102,81.379472 h 45.16534 v 46.236218 h -45.16534 z"
     fill-rule="evenodd"
     id="path84" />
  <path
     fill="#ff0000"
     d="m 164.13825,81.620242 h 45.16534 v 46.236218 h -45.16534 z"
     fill-rule="evenodd"
     id="path85" />
  <path
     stroke="#000000"
     stroke-width="2"
     stroke-linejoin="round"
     stroke-linecap="butt"
     d="m 164.13825,81.620242 h 45.16534 v 46.236218 h -45.16534 z"
     fill-rule="evenodd"
     id="path86" />
  <path
     fill="#ff0000"
     d="m 27.0767,127.36579 h 45.16534 v 46.23622 H 27.0767 Z"
     fill-rule="evenodd"
     id="path87" />
  <path
     stroke="#000000"
     stroke-width="2"
     stroke-linejoin="round"
     stroke-linecap="butt"
     d="m 27.0767,127.36579 h 45.16534 v 46.23622 H 27.0767 Z"
     fill-rule="evenodd"
     id="path88" />
  <path
     fill="#000000"
     fill-opacity="0"
     d="m 0.24076,126.79616 h 30.4567 v 30.4567 H 0.24076 Z"
     fill-rule="evenodd"
     id="path89" />
  <path
     fill="#000000"
     d="m 18.70951,143.63803 -2.48438,0.26562 q -0.0937,-0.76562 -0.48437,-1.125 -0.375,-0.375 -0.98438,-0.375 -0.8125,0 -1.375,0.73438 -0.54687,0.73437 -0.70312,3.03125 0.96875,-1.125 2.39062,-1.125 1.59375,0 2.73438,1.21875 1.14062,1.21875 1.14062,3.15625 0,2.04687 -1.20312,3.29687 -1.1875,1.23438 -3.07813,1.23438 -2.03125,0 -3.32812,-1.57813 -1.29688,-1.57812 -1.29688,-5.15625 0,-3.67187 1.34375,-5.28125 1.35938,-1.625 3.53125,-1.625 1.53125,0 2.51563,0.85938 1,0.84375 1.28125,2.46875 z m -5.8125,5.57812 q 0,1.25 0.57812,1.9375 0.57813,0.67188 1.3125,0.67188 0.71875,0 1.1875,-0.54688 0.46875,-0.5625 0.46875,-1.82812 0,-1.3125 -0.51562,-1.90625 -0.5,-0.60938 -1.26563,-0.60938 -0.73437,0 -1.25,0.57813 -0.51562,0.57812 -0.51562,1.70312 z"
     fill-rule="nonzero"
     id="path90" />
  <path
     fill="#ff0000"
     d="m 72.49394,127.60655 h 45.16534 v 46.23622 H 72.49394 Z"
     fill-rule="evenodd"
     id="path91" />
  <path
     stroke="#000000"
     stroke-width="2"
     stroke-linejoin="round"
     stroke-linecap="butt"
     d="m 72.49394,127.60655 h 45.16534 v 46.23622 H 72.49394 Z"
     fill-rule="evenodd"
     id="path92" />
  <path
     fill="#ff0000"
     d="m 27.31748,173.83364 h 45.16534 v 46.23621 H 27.31748 Z"
     fill-rule="evenodd"
     id="path93" />
  <path
     stroke="#000000"
     stroke-width="2"
     stroke-linejoin="round"
     stroke-linecap="butt"
     d="m 27.31748,173.83364 h 45.16534 v 46.23621 H 27.31748 Z"
     fill-rule="evenodd"
     id="path94" />
  <path
     fill="#000000"
     fill-opacity="0"
     d="m 0.48153,173.26401 h 30.45668 v 30.45668 H 0.48153 Z"
     fill-rule="evenodd"
     id="path95" />
  <path
     fill="#000000"
     d="m 10.30965,196.74651 2.54687,-0.26563 q 0.10938,0.875 0.64063,1.375 0.54687,0.5 1.25,0.5 0.79687,0 1.34375,-0.64062 0.5625,-0.65625 0.5625,-1.96875 0,-1.23438 -0.54688,-1.84375 -0.54687,-0.60938 -1.4375,-0.60938 -1.09375,0 -1.96875,0.96875 l -2.07812,-0.29687 1.3125,-6.95313 h 6.76562 v 2.39063 h -4.82812 l -0.40625,2.26562 q 0.85937,-0.42187 1.75,-0.42187 1.70312,0 2.89062,1.25 1.1875,1.23437 1.1875,3.20312 0,1.65625 -0.95312,2.9375 -1.3125,1.78125 -3.625,1.78125 -1.84375,0 -3.01563,-1 -1.15625,-1 -1.39062,-2.67187 z"
     fill-rule="nonzero"
     id="path96" />
  <path
     fill="#ffffff"
     d="m 34.90803,196.66301 c 0,-8.41037 6.81796,-15.22833 15.22833,-15.22833 4.03882,0 7.9122,1.60441 10.76807,4.46028 2.85586,2.85586 4.4603,6.72926 4.4603,10.76805 0,8.4104 -6.81797,15.22836 -15.22837,15.22836 -8.41037,0 -15.22833,-6.81796 -15.22833,-15.22836 z"
     fill-rule="evenodd"
     id="path97" />
  <path
     stroke="#000000"
     stroke-width="2"
     stroke-linejoin="round"
     stroke-linecap="butt"
     d="m 34.90803,196.66301 c 0,-8.41037 6.81796,-15.22833 15.22833,-15.22833 4.03882,0 7.9122,1.60441 10.76807,4.46028 2.85586,2.85586 4.4603,6.72926 4.4603,10.76805 0,8.4104 -6.81797,15.22836 -15.22837,15.22836 -8.41037,0 -15.22833,-6.81796 -15.22833,-15.22836 z"
     fill-rule="evenodd"
     id="path98" />
  <path
     fill="#ff0000"
     d="m 72.7347,174.0744 h 45.16537 v 46.23622 H 72.7347 Z"
     fill-rule="evenodd"
     id="path99" />
  <path
     stroke="#000000"
     stroke-width="2"
     stroke-linejoin="round"
     stroke-linecap="butt"
     d="m 72.7347,174.0744 h 45.16537 v 46.23622 H 72.7347 Z"
     fill-rule="evenodd"
     id="path100" />
  <path
     fill="#ff0000"
     d="m 118.72102,127.60655 h 45.16534 v 46.23622 h -45.16534 z"
     fill-rule="evenodd"
     id="path101" />
  <path
     stroke="#000000"
     stroke-width="2"
     stroke-linejoin="round"
     stroke-linecap="butt"
     d="m 118.72102,127.60655 h 45.16534 v 46.23622 h -45.16534 z"
     fill-rule="evenodd"
     id="path102" />
  <path
     fill="#ff0000"
     d="m 164.13825,127.84732 h 45.16534 v 46.23622 h -45.16534 z"
     fill-rule="evenodd"
     id="path103" />
  <path
     stroke="#000000"
     stroke-width="2"
     stroke-linejoin="round"
     stroke-linecap="butt"
     d="m 164.13825,127.84732 h 45.16534 v 46.23622 h -45.16534 z"
     fill-rule="evenodd"
     id="path104" />
  <path
     fill="#ff0000"
     d="m 118.96177,174.0744 h 45.16537 v 46.23622 h -45.16537 z"
     fill-rule="evenodd"
     id="path105" />
  <path
     stroke="#000000"
     stroke-width="2"
     stroke-linejoin="round"
     stroke-linecap="butt"
     d="m 118.96177,174.0744 h 45.16537 v 46.23622 h -45.16537 z"
     fill-rule="evenodd"
     id="path106" />
  <path
     fill="#ff0000"
     d="m 164.379,174.31517 h 45.16537 v 46.23621 H 164.379 Z"
     fill-rule="evenodd"
     id="path107" />
  <path
     stroke="#000000"
     stroke-width="2"
     stroke-linejoin="round"
     stroke-linecap="butt"
     d="m 164.379,174.31517 h 45.16537 v 46.23621 H 164.379 Z"
     fill-rule="evenodd"
     id="path108" />
  <path
     fill="#ff0000"
     d="m 210.69364,220.62979 h 45.16534 v 46.23624 h -45.16534 z"
     fill-rule="evenodd"
     id="path109" />
  <path
     stroke="#000000"
     stroke-width="2"
     stroke-linejoin="round"
     stroke-linecap="butt"
     d="m 210.69364,220.62979 h 45.16534 v 46.23624 h -45.16534 z"
     fill-rule="evenodd"
     id="path110" />
  <path
     fill="#ff0000"
     d="m 256.11088,220.87056 h 45.16537 v 46.23621 h -45.16537 z"
     fill-rule="evenodd"
     id="path111" />
  <path
     stroke="#000000"
     stroke-width="2"
     stroke-linejoin="round"
     stroke-linecap="butt"
     d="m 256.11088,220.87056 h 45.16537 v 46.23621 h -45.16537 z"
     fill-rule="evenodd"
     id="path112" />
  <path
     fill="#ff0000"
     d="m 210.93443,267.09764 h 45.16534 v 46.23621 h -45.16534 z"
     fill-rule="evenodd"
     id="path113" />
  <path
     stroke="#000000"
     stroke-width="2"
     stroke-linejoin="round"
     stroke-linecap="butt"
     d="m 210.93443,267.09764 h 45.16534 v 46.23621 h -45.16534 z"
     fill-rule="evenodd"
     id="path114" />
  <path
     fill="#ff0000"
     d="m 256.35163,267.33839 h 45.16534 v 46.23624 h -45.16534 z"
     fill-rule="evenodd"
     id="path115" />
  <path
     stroke="#000000"
     stroke-width="2"
     stroke-linejoin="round"
     stroke-linecap="butt"
     d="m 256.35163,267.33839 h 45.16534 v 46.23624 h -45.16534 z"
     fill-rule="evenodd"
     id="path116" />
  <path
     fill="#ff0000"
     d="m 302.33796,220.87056 h 45.16534 v 46.23621 h -45.16534 z"
     fill-rule="evenodd"
     id="path117" />
  <path
     stroke="#000000"
     stroke-width="2"
     stroke-linejoin="round"
     stroke-linecap="butt"
     d="m 302.33796,220.87056 h 45.16534 v 46.23621 h -45.16534 z"
     fill-rule="evenodd"
     id="path118" />
  <path
     fill="#ff0000"
     d="m 347.7552,221.11131 h 45.16534 v 46.23624 H 347.7552 Z"
     fill-rule="evenodd"
     id="path119" />
  <path
     stroke="#000000"
     stroke-width="2"
     stroke-linejoin="round"
     stroke-linecap="butt"
     d="m 347.7552,221.11131 h 45.16534 v 46.23624 H 347.7552 Z"
     fill-rule="evenodd"
     id="path120" />
  <path
     fill="#000000"
     fill-opacity="0"
     d="m 390.5006,221.83309 h 30.45673 v 30.4567 H 390.5006 Z"
     fill-rule="evenodd"
     id="path121" />
  <path
     fill="#000000"
     d="m 405.3131,248.75309 v -2.6875 h -5.46875 v -2.23438 l 5.79687,-8.48437 h 2.15625 v 8.46875 h 1.65625 v 2.25 h -1.65625 v 2.6875 z m 0,-4.9375 v -4.5625 l -3.07813,4.5625 z"
     fill-rule="nonzero"
     id="path122" />
  <path
     fill="#ffffff"
     d="m 355.3458,243.94072 c 0,-8.41037 6.81793,-15.22833 15.22833,-15.22833 4.03882,0 7.91217,1.6044 10.76807,4.46026 2.85583,2.85587 4.46026,6.72925 4.46026,10.76807 0,8.41037 -6.81799,15.22836 -15.22833,15.22836 -8.4104,0 -15.22833,-6.81799 -15.22833,-15.22836 z"
     fill-rule="evenodd"
     id="path123" />
  <path
     stroke="#000000"
     stroke-width="2"
     stroke-linejoin="round"
     stroke-linecap="butt"
     d="m 355.3458,243.94072 c 0,-8.41037 6.81793,-15.22833 15.22833,-15.22833 4.03882,0 7.91217,1.6044 10.76807,4.46026 2.85583,2.85587 4.46026,6.72925 4.46026,10.76807 0,8.41037 -6.81799,15.22836 -15.22833,15.22836 -8.4104,0 -15.22833,-6.81799 -15.22833,-15.22836 z"
     fill-rule="evenodd"
     id="path124" />
  <path
     fill="#ff0000"
     d="m 302.57874,267.33839 h 45.16534 v 46.23624 h -45.16534 z"
     fill-rule="evenodd"
     id="path125" />
  <path
     stroke="#000000"
     stroke-width="2"
     stroke-linejoin="round"
     stroke-linecap="butt"
     d="m 302.57874,267.33839 h 45.16534 v 46.23624 h -45.16534 z"
     fill-rule="evenodd"
     id="path126" />
  <path
     fill="#ff0000"
     d="m 347.996,267.57919 h 45.16534 V 313.8154 H 347.996 Z"
     fill-rule="evenodd"
     id="path127" />
  <path
     stroke="#000000"
     stroke-width="2"
     stroke-linejoin="round"
     stroke-linecap="butt"
     d="m 347.996,267.57919 h 45.16534 V 313.8154 H 347.996 Z"
     fill-rule="evenodd"
     id="path128" />
  <path
     fill="#000000"
     fill-opacity="0"
     d="m 390.7414,268.30095 h 30.45673 v 30.45666 H 390.7414 Z"
     fill-rule="evenodd"
     id="path129" />
  <path
     fill="#000000"
     d="m 400.4445,291.67406 2.46875,-0.29688 q 0.125,0.95313 0.64062,1.45313 0.53125,0.5 1.26563,0.5 0.78125,0 1.32812,-0.59375 0.54688,-0.60938 0.54688,-1.64063 0,-0.95312 -0.53125,-1.51562 -0.51563,-0.57813 -1.25,-0.57813 -0.5,0 -1.1875,0.20313 l 0.28125,-2.09375 q 1.04687,0.0312 1.59375,-0.4375 0.54687,-0.48438 0.54687,-1.28125 0,-0.67188 -0.40625,-1.07813 -0.39062,-0.40625 -1.0625,-0.40625 -0.65625,0 -1.125,0.46875 -0.45312,0.45313 -0.5625,1.32813 l -2.35937,-0.40625 q 0.25,-1.20313 0.73437,-1.92188 0.5,-0.73437 1.39063,-1.14062 0.89062,-0.42188 2,-0.42188 1.875,0 3.01562,1.20313 0.9375,0.98437 0.9375,2.21875 0,1.76562 -1.92187,2.8125 1.15625,0.23437 1.84375,1.09375 0.6875,0.85937 0.6875,2.0625 0,1.76562 -1.29688,3.01562 -1.28125,1.23438 -3.1875,1.23438 -1.8125,0 -3.01562,-1.04688 -1.1875,-1.04687 -1.375,-2.73437 z"
     fill-rule="nonzero"
     id="path130" />
  <path
     fill="#ff0000"
     d="m 210.93443,313.32472 h 45.16534 v 46.23621 h -45.16534 z"
     fill-rule="evenodd"
     id="path131" />
  <path
     stroke="#000000"
     stroke-width="2"
     stroke-linejoin="round"
     stroke-linecap="butt"
     d="m 210.93443,313.32472 h 45.16534 v 46.23621 h -45.16534 z"
     fill-rule="evenodd"
     id="path132" />
  <path
     fill="#ff0000"
     d="m 256.35163,313.56549 h 45.16534 v 46.23624 h -45.16534 z"
     fill-rule="evenodd"
     id="path133" />
  <path
     stroke="#000000"
     stroke-width="2"
     stroke-linejoin="round"
     stroke-linecap="butt"
     d="m 256.35163,313.56549 h 45.16534 v 46.23624 h -45.16534 z"
     fill-rule="evenodd"
     id="path134" />
  <path
     fill="#ff0000"
     d="m 211.17518,359.79256 h 45.16534 v 46.23624 h -45.16534 z"
     fill-rule="evenodd"
     id="path135" />
  <path
     stroke="#000000"
     stroke-width="2"
     stroke-linejoin="round"
     stroke-linecap="butt"
     d="m 211.17518,359.79256 h 45.16534 v 46.23624 h -45.16534 z"
     fill-rule="evenodd"
     id="path136" />
  <path
     fill="#000000"
     fill-opacity="0"
     d="m 218.76878,396.80434 h 30.4567 v 30.4567 h -30.4567 z"
     fill-rule="evenodd"
     id="path137" />
  <path
     fill="#000000"
     d="m 234.70628,420.64623 2.54687,0.42187 q -0.48437,1.40625 -1.54687,2.14063 -1.0625,0.73437 -2.65625,0.73437 -2.51563,0 -3.73438,-1.65625 -0.95312,-1.3125 -0.95312,-3.32812 0,-2.40625 1.25,-3.76563 1.26562,-1.35937 3.1875,-1.35937 2.15625,0 3.40625,1.42187 1.25,1.42188 1.1875,4.375 h -6.40625 q 0.0312,1.14063 0.60937,1.78125 0.59375,0.625 1.48438,0.625 0.59375,0 1,-0.32812 0.42187,-0.32813 0.625,-1.0625 z m 0.15625,-2.59375 q -0.0312,-1.10938 -0.57813,-1.6875 -0.54687,-0.57813 -1.32812,-0.57813 -0.84375,0 -1.39063,0.60938 -0.54687,0.60937 -0.53125,1.65625 z"
     fill-rule="nonzero"
     id="path138" />
  <path
     fill="#ffffff"
     d="m 218.76572,382.62197 c 0,-8.41037 6.81796,-15.22833 15.22836,-15.22833 4.03879,0 7.9122,1.6044 10.76807,4.46026 2.85586,2.85587 4.46026,6.72925 4.46026,10.76807 0,8.41037 -6.81796,15.22836 -15.22833,15.22836 -8.4104,0 -15.22836,-6.81799 -15.22836,-15.22836 z"
     fill-rule="evenodd"
     id="path139" />
  <path
     stroke="#000000"
     stroke-width="2"
     stroke-linejoin="round"
     stroke-linecap="butt"
     d="m 218.76572,382.62197 c 0,-8.41037 6.81796,-15.22833 15.22836,-15.22833 4.03879,0 7.9122,1.6044 10.76807,4.46026 2.85586,2.85587 4.46026,6.72925 4.46026,10.76807 0,8.41037 -6.81796,15.22836 -15.22833,15.22836 -8.4104,0 -15.22836,-6.81799 -15.22836,-15.22836 z"
     fill-rule="evenodd"
     id="path140" />
  <path
     fill="#ff0000"
     d="m 256.59242,360.03334 h 45.16534 v 46.23621 h -45.16534 z"
     fill-rule="evenodd"
     id="path141" />
  <path
     stroke="#000000"
     stroke-width="2"
     stroke-linejoin="round"
     stroke-linecap="butt"
     d="m 256.59242,360.03334 h 45.16534 v 46.23621 h -45.16534 z"
     fill-rule="evenodd"
     id="path142" />
  <path
     fill="#000000"
     fill-opacity="0"
     d="m 264.186,397.04512 h 30.4567 v 30.45666 H 264.186 Z"
     fill-rule="evenodd"
     id="path143" />
  <path
     fill="#000000"
     d="m 273.40476,414.29323 h 1.42188 v -0.73438 q 0,-1.21875 0.25,-1.8125 0.26562,-0.60937 0.95312,-0.98437 0.70313,-0.375 1.78125,-0.375 1.09375,0 2.14063,0.32812 l -0.35938,1.78125 q -0.60937,-0.14062 -1.17187,-0.14062 -0.54688,0 -0.79688,0.26562 -0.23437,0.25 -0.23437,0.98438 v 0.6875 h 1.90625 v 2.01562 h -1.90625 v 7.65625 h -2.5625 v -7.65625 h -1.42188 z"
     fill-rule="nonzero"
     id="path144" />
  <path
     fill="#ff0000"
     d="m 302.57874,313.56549 h 45.16534 v 46.23624 h -45.16534 z"
     fill-rule="evenodd"
     id="path145" />
  <path
     stroke="#000000"
     stroke-width="2"
     stroke-linejoin="round"
     stroke-linecap="butt"
     d="m 302.57874,313.56549 h 45.16534 v 46.23624 h -45.16534 z"
     fill-rule="evenodd"
     id="path146" />
  <path
     fill="#ff0000"
     d="m 347.996,313.80626 h 45.16534 v 46.23621 H 347.996 Z"
     fill-rule="evenodd"
     id="path147" />
  <path
     stroke="#000000"
     stroke-width="2"
     stroke-linejoin="round"
     stroke-linecap="butt"
     d="m 347.996,313.80626 h 45.16534 v 46.23621 H 347.996 Z"
     fill-rule="evenodd"
     id="path148" />
  <path
     fill="#000000"
     fill-opacity="0"
     d="m 390.7414,314.52803 h 30.45673 v 30.45666 H 390.7414 Z"
     fill-rule="evenodd"
     id="path149" />
  <path
     fill="#000000"
     d="m 409.1789,339.07301 v 2.375 h -8.96875 q 0.14062,-1.34375 0.85937,-2.54687 0.73438,-1.21875 2.89063,-3.20313 1.73437,-1.625 2.125,-2.1875 0.53125,-0.79687 0.53125,-1.57812 0,-0.84375 -0.46875,-1.29688 -0.45313,-0.46875 -1.26563,-0.46875 -0.79687,0 -1.28125,0.48438 -0.46875,0.46875 -0.54687,1.59375 l -2.54688,-0.25 q 0.23438,-2.10938 1.42188,-3.03125 1.20312,-0.92188 3.01562,-0.92188 1.96875,0 3.09375,1.0625 1.14063,1.0625 1.14063,2.65625 0,0.89063 -0.32813,1.71875 -0.3125,0.8125 -1.01562,1.70313 -0.46875,0.59375 -1.6875,1.70312 -1.20313,1.10938 -1.53125,1.48438 -0.3125,0.35937 -0.51563,0.70312 z"
     fill-rule="nonzero"
     id="path150" />
  <path
     fill="#ff0000"
     d="m 302.81947,360.03334 h 45.1654 v 46.23621 h -45.1654 z"
     fill-rule="evenodd"
     id="path151" />
  <path
     stroke="#000000"
     stroke-width="2"
     stroke-linejoin="round"
     stroke-linecap="butt"
     d="m 302.81947,360.03334 h 45.1654 v 46.23621 h -45.1654 z"
     fill-rule="evenodd"
     id="path152" />
  <path
     fill="#000000"
     fill-opacity="0"
     d="m 310.4131,397.04512 h 30.45673 v 30.45666 H 310.4131 Z"
     fill-rule="evenodd"
     id="path153" />
  <path
     fill="#000000"
     d="m 320.52247,424.60573 2.92187,0.35937 q 0.0625,0.5 0.32813,0.6875 0.375,0.28125 1.15625,0.28125 1,0 1.5,-0.29687 0.32812,-0.20313 0.51562,-0.65625 0.10938,-0.3125 0.10938,-1.17188 v -1.40625 q -1.14063,1.5625 -2.89063,1.5625 -1.95312,0 -3.09375,-1.65625 -0.89062,-1.29687 -0.89062,-3.23437 0,-2.4375 1.17187,-3.71875 1.17188,-1.28125 2.90625,-1.28125 1.79688,0 2.96875,1.57812 v -1.35937 h 2.39063 v 8.67187 q 0,1.71875 -0.28125,2.5625 -0.28125,0.84375 -0.79688,1.32813 -0.5,0.48437 -1.35937,0.75 -0.84375,0.28125 -2.15625,0.28125 -2.45313,0 -3.48438,-0.84375 -1.03125,-0.84375 -1.03125,-2.125 0,-0.14063 0.0156,-0.3125 z m 2.28125,-5.67188 q 0,1.53125 0.59375,2.25 0.59375,0.71875 1.46875,0.71875 0.9375,0 1.57812,-0.73437 0.65625,-0.73438 0.65625,-2.17188 0,-1.51562 -0.625,-2.23437 -0.60937,-0.73438 -1.5625,-0.73438 -0.92187,0 -1.51562,0.71875 -0.59375,0.71875 -0.59375,2.1875 z"
     fill-rule="nonzero"
     id="path154" />
  <path
     fill="#ff0000"
     d="m 348.2367,360.27409 h 45.16541 v 46.23624 H 348.2367 Z"
     fill-rule="evenodd"
     id="path155" />
  <path
     stroke="#000000"
     stroke-width="2"
     stroke-linejoin="round"
     stroke-linecap="butt"
     d="m 348.2367,360.27409 h 45.16541 v 46.23624 H 348.2367 Z"
     fill-rule="evenodd"
     id="path156" />
  <path
     fill="#000000"
     fill-opacity="0"
     d="m 355.8303,397.28589 h 30.45667 v 30.4567 H 355.8303 Z"
     fill-rule="evenodd"
     id="path157" />
  <path
     fill="#000000"
     d="m 368.72096,410.84649 v 4.92188 q 1.23437,-1.45313 2.95312,-1.45313 0.89063,0 1.59375,0.32813 0.71875,0.32812 1.07813,0.84375 0.35937,0.5 0.48437,1.125 0.14063,0.60937 0.14063,1.92187 v 5.67188 h -2.5625 v -5.10938 q 0,-1.51562 -0.15625,-1.92187 -0.14063,-0.42188 -0.51563,-0.65625 -0.35937,-0.25 -0.90625,-0.25 -0.64062,0 -1.14062,0.3125 -0.5,0.3125 -0.73438,0.9375 -0.23437,0.625 -0.23437,1.84375 v 4.84375 h -2.5625 v -13.35938 z"
     fill-rule="nonzero"
     id="path158" />
  <path
     fill="#000000"
     fill-opacity="0"
     d="m 390.9822,360.99587 h 30.45667 v 30.4567 H 390.9822 Z"
     fill-rule="evenodd"
     id="path159" />
  <path
     fill="#000000"
     d="m 407.32594,387.91589 h -2.5625 v -9.64063 q -1.40625,1.3125 -3.3125,1.9375 v -2.32812 q 1.01562,-0.32813 2.1875,-1.23438 1.17187,-0.92187 1.60937,-2.14062 h 2.07813 z"
     fill-rule="nonzero"
     id="path160" />
  <path
     fill="#ff0000"
     d="m 209.8838,34.911617 h 45.16534 V 81.147842 H 209.8838 Z"
     fill-rule="evenodd"
     id="path161" />
  <path
     stroke="#000000"
     stroke-width="2"
     stroke-linejoin="round"
     stroke-linecap="butt"
     d="m 209.8838,34.911617 h 45.16534 V 81.147842 H 209.8838 Z"
     fill-rule="evenodd"
     id="path162" />
  <path
     fill="#000000"
     fill-opacity="0"
     d="m 218.28724,0.240768 h 30.4567 V 30.69746 h -30.4567 z"
     fill-rule="evenodd"
     id="path163" />
  <path
     fill="#000000"
     d="m 234.22474,24.082638 2.54687,0.421875 q -0.48437,1.40625 -1.54687,2.140625 -1.0625,0.734375 -2.65625,0.734375 -2.51563,0 -3.73438,-1.65625 -0.95312,-1.3125 -0.95312,-3.328125 0,-2.40625 1.25,-3.765625 1.26562,-1.359375 3.1875,-1.359375 2.15625,0 3.40625,1.421875 1.25,1.421875 1.1875,4.375 h -6.40625 q 0.0312,1.140625 0.60937,1.78125 0.59375,0.625 1.48438,0.625 0.59375,0 1,-0.328125 0.42187,-0.328125 0.625,-1.0625 z m 0.15625,-2.59375 q -0.0312,-1.109375 -0.57813,-1.6875 -0.54687,-0.578125 -1.32812,-0.578125 -0.84375,0 -1.39063,0.609375 -0.54687,0.609375 -0.53125,1.65625 z"
     fill-rule="nonzero"
     id="path164" />
  <path
     fill="#ff0000"
     d="m 255.30103,35.152382 h 45.16534 v 46.23623 h -45.16534 z"
     fill-rule="evenodd"
     id="path165" />
  <path
     stroke="#000000"
     stroke-width="2"
     stroke-linejoin="round"
     stroke-linecap="butt"
     d="m 255.30103,35.152382 h 45.16534 v 46.23623 h -45.16534 z"
     fill-rule="evenodd"
     id="path166" />
  <path
     fill="#000000"
     fill-opacity="0"
     d="m 263.70448,0.481537 h 30.45673 v 30.456692 h -30.45673 z"
     fill-rule="evenodd"
     id="path167" />
  <path
     fill="#000000"
     d="m 272.92323,17.729656 h 1.42187 v -0.734375 q 0,-1.21875 0.25,-1.8125 0.26563,-0.609375 0.95313,-0.984375 0.70312,-0.375 1.78125,-0.375 1.09375,0 2.14062,0.328125 l -0.35937,1.78125 q -0.60938,-0.140625 -1.17188,-0.140625 -0.54687,0 -0.79687,0.265625 -0.23438,0.25 -0.23438,0.984375 v 0.6875 h 1.90625 v 2.015625 h -1.90625 v 7.65625 h -2.5625 v -7.65625 h -1.42187 z"
     fill-rule="nonzero"
     id="path168" />
  <path
     fill="#ff0000"
     d="m 210.12455,81.379472 h 45.16537 v 46.236218 h -45.16537 z"
     fill-rule="evenodd"
     id="path169" />
  <path
     stroke="#000000"
     stroke-width="2"
     stroke-linejoin="round"
     stroke-linecap="butt"
     d="m 210.12455,81.379472 h 45.16537 v 46.236218 h -45.16537 z"
     fill-rule="evenodd"
     id="path170" />
  <path
     fill="#ffffff"
     d="m 217.71513,104.20886 c 0,-8.410388 6.81796,-15.228348 15.22833,-15.228348 4.03882,0 7.9122,1.60442 10.76807,4.46028 2.85586,2.85587 4.4603,6.729268 4.4603,10.768068 0,8.41038 -6.81797,15.22835 -15.22837,15.22835 -8.41037,0 -15.22833,-6.81797 -15.22833,-15.22835 z"
     fill-rule="evenodd"
     id="path171" />
  <path
     stroke="#000000"
     stroke-width="2"
     stroke-linejoin="round"
     stroke-linecap="butt"
     d="m 217.71513,104.20886 c 0,-8.410388 6.81796,-15.228348 15.22833,-15.228348 4.03882,0 7.9122,1.60442 10.76807,4.46028 2.85586,2.85587 4.4603,6.729268 4.4603,10.768068 0,8.41038 -6.81797,15.22835 -15.22837,15.22835 -8.41037,0 -15.22833,-6.81797 -15.22833,-15.22835 z"
     fill-rule="evenodd"
     id="path172" />
  <path
     fill="#ff0000"
     d="m 255.5418,81.620242 h 45.16538 V 127.85646 H 255.5418 Z"
     fill-rule="evenodd"
     id="path173" />
  <path
     stroke="#000000"
     stroke-width="2"
     stroke-linejoin="round"
     stroke-linecap="butt"
     d="m 255.5418,81.620242 h 45.16538 V 127.85646 H 255.5418 Z"
     fill-rule="evenodd"
     id="path174" />
  <path
     fill="#ff0000"
     d="m 301.5281,35.152382 h 45.1654 v 46.23623 h -45.1654 z"
     fill-rule="evenodd"
     id="path175" />
  <path
     stroke="#000000"
     stroke-width="2"
     stroke-linejoin="round"
     stroke-linecap="butt"
     d="m 301.5281,35.152382 h 45.1654 v 46.23623 h -45.1654 z"
     fill-rule="evenodd"
     id="path176" />
  <path
     fill="#000000"
     fill-opacity="0"
     d="m 309.9316,0.481537 h 30.45667 V 30.938229 H 309.9316 Z"
     fill-rule="evenodd"
     id="path177" />
  <path
     fill="#000000"
     d="m 320.04096,28.042156 2.92188,0.359375 q 0.0625,0.5 0.32812,0.6875 0.375,0.28125 1.15625,0.28125 1,0 1.5,-0.296875 0.32813,-0.203125 0.51563,-0.65625 0.10937,-0.3125 0.10937,-1.171875 v -1.40625 q -1.14062,1.5625 -2.89062,1.5625 -1.95313,0 -3.09375,-1.65625 -0.89063,-1.296875 -0.89063,-3.234375 0,-2.4375 1.17188,-3.71875 1.17187,-1.28125 2.90625,-1.28125 1.79687,0 2.96875,1.578125 v -1.359375 h 2.39062 v 8.671875 q 0,1.71875 -0.28125,2.5625 -0.28125,0.84375 -0.79687,1.328125 -0.5,0.484375 -1.35938,0.75 -0.84375,0.28125 -2.15625,0.28125 -2.45312,0 -3.48437,-0.84375 -1.03125,-0.84375 -1.03125,-2.125 0,-0.140625 0.0156,-0.3125 z m 2.28125,-5.671875 q 0,1.53125 0.59375,2.25 0.59375,0.71875 1.46875,0.71875 0.9375,0 1.57813,-0.734375 0.65625,-0.734375 0.65625,-2.171875 0,-1.515625 -0.625,-2.234375 -0.60938,-0.734375 -1.5625,-0.734375 -0.92188,0 -1.51563,0.71875 -0.59375,0.71875 -0.59375,2.1875 z"
     fill-rule="nonzero"
     id="path178" />
  <path
     fill="#ff0000"
     d="m 346.9453,35.393152 h 45.1654 v 46.23621 h -45.1654 z"
     fill-rule="evenodd"
     id="path179" />
  <path
     stroke="#000000"
     stroke-width="2"
     stroke-linejoin="round"
     stroke-linecap="butt"
     d="m 346.9453,35.393152 h 45.1654 v 46.23621 h -45.1654 z"
     fill-rule="evenodd"
     id="path180" />
  <path
     fill="#000000"
     fill-opacity="0"
     d="m 355.3488,0.722302 h 30.45667 V 31.178998 H 355.3488 Z"
     fill-rule="evenodd"
     id="path181" />
  <path
     fill="#000000"
     d="m 368.23945,14.282922 v 4.921875 q 1.23438,-1.453125 2.95313,-1.453125 0.89062,0 1.59375,0.328125 0.71875,0.328125 1.07812,0.84375 0.35938,0.5 0.48438,1.125 0.14062,0.609375 0.14062,1.921875 v 5.671875 h -2.5625 v -5.109375 q 0,-1.515625 -0.15625,-1.921875 -0.14062,-0.421875 -0.51562,-0.65625 -0.35938,-0.25 -0.90625,-0.25 -0.64063,0 -1.14063,0.3125 -0.5,0.3125 -0.73437,0.9375 -0.23438,0.625 -0.23438,1.84375 v 4.84375 h -2.5625 V 14.282922 Z"
     fill-rule="nonzero"
     id="path182" />
  <path
     fill="#000000"
     fill-opacity="0"
     d="m 389.6908,36.114918 h 30.45667 V 66.571612 H 389.6908 Z"
     fill-rule="evenodd"
     id="path183" />
  <path
     fill="#000000"
     d="m 401.6752,55.831792 q -0.98437,-0.42187 -1.4375,-1.15625 -0.45312,-0.73437 -0.45312,-1.60937 0,-1.48438 1.03125,-2.45313 1.04687,-0.98437 2.96875,-0.98437 1.90625,0 2.95312,0.98437 1.0625,0.96875 1.0625,2.45313 0,0.9375 -0.48437,1.65625 -0.48438,0.71875 -1.35938,1.10937 1.10938,0.4375 1.6875,1.29688 0.57813,0.85937 0.57813,1.98437 0,1.84375 -1.1875,3 -1.17188,1.15625 -3.125,1.15625 -1.82813,0 -3.03125,-0.95312 -1.4375,-1.125 -1.4375,-3.09375 0,-1.09375 0.53125,-2 0.54687,-0.90625 1.70312,-1.39063 z m 0.53125,-2.57812 q 0,0.76562 0.42188,1.20312 0.4375,0.42188 1.15625,0.42188 0.73437,0 1.17187,-0.4375 0.4375,-0.4375 0.4375,-1.20313 0,-0.71875 -0.4375,-1.14062 -0.42187,-0.4375 -1.14062,-0.4375 -0.73438,0 -1.17188,0.4375 -0.4375,0.4375 -0.4375,1.15625 z m -0.23437,5.71875 q 0,1.0625 0.53125,1.65625 0.54687,0.57812 1.35937,0.57812 0.79688,0 1.3125,-0.5625 0.51563,-0.5625 0.51563,-1.64062 0,-0.9375 -0.53125,-1.5 -0.51563,-0.57813 -1.32813,-0.57813 -0.9375,0 -1.40625,0.65625 -0.45312,0.64063 -0.45312,1.39063 z"
     fill-rule="nonzero"
     id="path184" />
  <path
     fill="#ff0000"
     d="m 301.76887,81.620242 h 45.16534 v 46.236218 h -45.16534 z"
     fill-rule="evenodd"
     id="path185" />
  <path
     stroke="#000000"
     stroke-width="2"
     stroke-linejoin="round"
     stroke-linecap="butt"
     d="m 301.76887,81.620242 h 45.16534 v 46.236218 h -45.16534 z"
     fill-rule="evenodd"
     id="path186" />
  <path
     fill="#ff0000"
     d="m 347.1861,81.861012 h 45.16534 V 128.09722 H 347.1861 Z"
     fill-rule="evenodd"
     id="path187" />
  <path
     stroke="#000000"
     stroke-width="2"
     stroke-linejoin="round"
     stroke-linecap="butt"
     d="m 347.1861,81.861012 h 45.16534 V 128.09722 H 347.1861 Z"
     fill-rule="evenodd"
     id="path188" />
  <path
     fill="#000000"
     fill-opacity="0"
     d="m 389.9316,82.582772 h 30.45667 V 113.03947 H 389.9316 Z"
     fill-rule="evenodd"
     id="path189" />
  <path
     fill="#000000"
     d="m 399.72846,98.705892 v -2.375 h 8.75 v 1.85937 q -1.07812,1.0625 -2.20312,3.062498 -1.125,1.98438 -1.71875,4.23438 -0.57813,2.25 -0.5625,4.01562 h -2.46875 q 0.0625,-2.76562 1.14062,-5.64062 1.07813,-2.89063 2.875,-5.156248 z"
     fill-rule="nonzero"
     id="path190" />
  <path
     fill="#ff0000"
     d="m 210.12455,127.60655 h 45.16537 v 46.23622 h -45.16537 z"
     fill-rule="evenodd"
     id="path191" />
  <path
     stroke="#000000"
     stroke-width="2"
     stroke-linejoin="round"
     stroke-linecap="butt"
     d="m 210.12455,127.60655 h 45.16537 v 46.23622 h -45.16537 z"
     fill-rule="evenodd"
     id="path192" />
  <path
     fill="#ff0000"
     d="m 255.5418,127.84732 h 45.16538 v 46.23622 H 255.5418 Z"
     fill-rule="evenodd"
     id="path193" />
  <path
     stroke="#000000"
     stroke-width="2"
     stroke-linejoin="round"
     stroke-linecap="butt"
     d="m 255.5418,127.84732 h 45.16538 v 46.23622 H 255.5418 Z"
     fill-rule="evenodd"
     id="path194" />
  <path
     fill="#ffffff"
     d="m 263.13236,150.67671 c 0,-8.41039 6.81796,-15.22835 15.22833,-15.22835 4.03882,0 7.9122,1.60442 10.7681,4.46028 2.85583,2.85587 4.46027,6.72927 4.46027,10.76807 0,8.41038 -6.818,15.22835 -15.22837,15.22835 -8.41037,0 -15.22833,-6.81797 -15.22833,-15.22835 z"
     fill-rule="evenodd"
     id="path195" />
  <path
     stroke="#000000"
     stroke-width="2"
     stroke-linejoin="round"
     stroke-linecap="butt"
     d="m 263.13236,150.67671 c 0,-8.41039 6.81796,-15.22835 15.22833,-15.22835 4.03882,0 7.9122,1.60442 10.7681,4.46028 2.85583,2.85587 4.46027,6.72927 4.46027,10.76807 0,8.41038 -6.818,15.22835 -15.22837,15.22835 -8.41037,0 -15.22833,-6.81797 -15.22833,-15.22835 z"
     fill-rule="evenodd"
     id="path196" />
  <path
     fill="#ff0000"
     d="m 210.36533,174.0744 h 45.16534 v 46.23622 h -45.16534 z"
     fill-rule="evenodd"
     id="path197" />
  <path
     stroke="#000000"
     stroke-width="2"
     stroke-linejoin="round"
     stroke-linecap="butt"
     d="m 210.36533,174.0744 h 45.16534 v 46.23622 h -45.16534 z"
     fill-rule="evenodd"
     id="path198" />
  <path
     fill="#ff0000"
     d="m 255.78257,174.31517 h 45.16538 v 46.23621 h -45.16538 z"
     fill-rule="evenodd"
     id="path199" />
  <path
     stroke="#000000"
     stroke-width="2"
     stroke-linejoin="round"
     stroke-linecap="butt"
     d="m 255.78257,174.31517 h 45.16538 v 46.23621 h -45.16538 z"
     fill-rule="evenodd"
     id="path200" />
  <path
     fill="#ff0000"
     d="m 301.76887,127.84732 h 45.16534 v 46.23622 h -45.16534 z"
     fill-rule="evenodd"
     id="path201" />
  <path
     stroke="#000000"
     stroke-width="2"
     stroke-linejoin="round"
     stroke-linecap="butt"
     d="m 301.76887,127.84732 h 45.16534 v 46.23622 h -45.16534 z"
     fill-rule="evenodd"
     id="path202" />
  <path
     fill="#ff0000"
     d="m 347.1861,128.08809 h 45.16534 V 174.3243 H 347.1861 Z"
     fill-rule="evenodd"
     id="path203" />
  <path
     stroke="#000000"
     stroke-width="2"
     stroke-linejoin="round"
     stroke-linecap="butt"
     d="m 347.1861,128.08809 h 45.16534 V 174.3243 H 347.1861 Z"
     fill-rule="evenodd"
     id="path204" />
  <path
     fill="#000000"
     fill-opacity="0"
     d="m 389.9316,128.80985 h 30.45667 v 30.4567 H 389.9316 Z"
     fill-rule="evenodd"
     id="path205" />
  <path
     fill="#000000"
     d="m 408.40034,145.65172 -2.48437,0.26562 q -0.0937,-0.76562 -0.48438,-1.125 -0.375,-0.375 -0.98437,-0.375 -0.8125,0 -1.375,0.73438 -0.54688,0.73437 -0.70313,3.03125 0.96875,-1.125 2.39063,-1.125 1.59375,0 2.73437,1.21875 1.14063,1.21875 1.14063,3.15625 0,2.04687 -1.20313,3.29687 -1.1875,1.23438 -3.07812,1.23438 -2.03125,0 -3.32813,-1.57813 -1.29687,-1.57812 -1.29687,-5.15625 0,-3.67187 1.34375,-5.28125 1.35937,-1.625 3.53125,-1.625 1.53125,0 2.51562,0.85938 1,0.84375 1.28125,2.46875 z m -5.8125,5.57812 q 0,1.25 0.57813,1.9375 0.57812,0.67188 1.3125,0.67188 0.71875,0 1.1875,-0.54688 0.46875,-0.5625 0.46875,-1.82812 0,-1.3125 -0.51563,-1.90625 -0.5,-0.60938 -1.26562,-0.60938 -0.73438,0 -1.25,0.57813 -0.51563,0.57812 -0.51563,1.70312 z"
     fill-rule="nonzero"
     id="path206" />
  <path
     fill="#ff0000"
     d="m 302.00965,174.31517 h 45.16534 v 46.23621 h -45.16534 z"
     fill-rule="evenodd"
     id="path207" />
  <path
     stroke="#000000"
     stroke-width="2"
     stroke-linejoin="round"
     stroke-linecap="butt"
     d="m 302.00965,174.31517 h 45.16534 v 46.23621 h -45.16534 z"
     fill-rule="evenodd"
     id="path208" />
  <path
     fill="#ffffff"
     d="m 309.6002,197.14455 c 0,-8.41037 6.81793,-15.22833 15.22833,-15.22833 4.03882,0 7.91217,1.60441 10.76807,4.46028 2.85583,2.85586 4.46026,6.72926 4.46026,10.76805 0,8.4104 -6.81799,15.22836 -15.22833,15.22836 -8.4104,0 -15.22833,-6.81796 -15.22833,-15.22836 z"
     fill-rule="evenodd"
     id="path209" />
  <path
     stroke="#000000"
     stroke-width="2"
     stroke-linejoin="round"
     stroke-linecap="butt"
     d="m 309.6002,197.14455 c 0,-8.41037 6.81793,-15.22833 15.22833,-15.22833 4.03882,0 7.91217,1.60441 10.76807,4.46028 2.85583,2.85586 4.46026,6.72926 4.46026,10.76805 0,8.4104 -6.81799,15.22836 -15.22833,15.22836 -8.4104,0 -15.22833,-6.81796 -15.22833,-15.22836 z"
     fill-rule="evenodd"
     id="path210" />
  <path
     fill="#ff0000"
     d="m 347.4269,174.55593 h 45.16534 v 46.23624 H 347.4269 Z"
     fill-rule="evenodd"
     id="path211" />
  <path
     stroke="#000000"
     stroke-width="2"
     stroke-linejoin="round"
     stroke-linecap="butt"
     d="m 347.4269,174.55593 h 45.16534 v 46.23624 H 347.4269 Z"
     fill-rule="evenodd"
     id="path212" />
  <path
     fill="#000000"
     fill-opacity="0"
     d="m 390.1723,175.27769 h 30.45673 v 30.4567 H 390.1723 Z"
     fill-rule="evenodd"
     id="path213" />
  <path
     fill="#000000"
     d="m 400.00044,198.76019 2.54688,-0.26563 q 0.10937,0.875 0.64062,1.375 0.54688,0.5 1.25,0.5 0.79688,0 1.34375,-0.64062 0.5625,-0.65625 0.5625,-1.96875 0,-1.23438 -0.54687,-1.84375 -0.54688,-0.60938 -1.4375,-0.60938 -1.09375,0 -1.96875,0.96875 l -2.07813,-0.29687 1.3125,-6.95311 h 6.76563 v 2.39063 h -4.82813 l -0.40625,2.2656 q 0.85938,-0.42187 1.75,-0.42187 1.70313,0 2.89063,1.25 1.1875,1.23437 1.1875,3.20312 0,1.65625 -0.95313,2.9375 -1.3125,1.78125 -3.625,1.78125 -1.84375,0 -3.01562,-1 -1.15625,-1 -1.39063,-2.67187 z"
     fill-rule="nonzero"
     id="path214" />
</svg>
